<!--?xml version="1.0" encoding="UTF-8" standalone="no"?-->

<!-- Generated by graphviz version 2.28.0 (20110507.0327)
 -->
<!-- Title: G Pages: 1 -->
<svg width="860pt" height="476pt" viewBox="0.00 0.00 860.00 476.00" xmlns="http://www.w3.org/2000/svg" xmlns:xlink="http://www.w3.org/1999/xlink">
<g id="graph1" class="graph" transform="scale(1 1) rotate(0) translate(4 472)">
<title>G</title>
<polygon fill="white" stroke="white" points="-4,5 -4,-472 857,-472 857,5 -4,5"></polygon>
<!-- Generate XYn patterns -->
<g id="node1" class="node"><title>Generate XYn patterns</title>
<ellipse fill="none" stroke="black" cx="100" cy="-450" rx="100.074" ry="18"></ellipse>
<text text-anchor="middle" x="100" y="-445.8" font-family="Times,serif" font-size="14.00">Generate XYn patterns</text>
</g>
<!-- Transform XYn patterns to regex -->
<g id="node3" class="node"><title>Transform XYn patterns to regex</title>
<ellipse fill="none" stroke="black" cx="220" cy="-378" rx="139.618" ry="18"></ellipse>
<text text-anchor="middle" x="220" y="-373.8" font-family="Times,serif" font-size="14.00">Transform XYn patterns to regex</text>
</g>
<!-- Generate XYn patterns&#45;&gt;Transform XYn patterns to regex -->
<g id="edge2" class="edge"><title>Generate XYn patterns-&gt;Transform XYn patterns to regex</title>
<path fill="none" stroke="black" d="M128.135,-432.588C144.298,-423.159 164.808,-411.195 182.346,-400.965"></path>
<polygon fill="black" stroke="black" points="184.334,-403.857 191.208,-395.795 180.807,-397.811 184.334,-403.857"></polygon>
</g>
<!-- Read sequences -->
<g id="node7" class="node"><title>Read sequences</title>
<ellipse fill="none" stroke="black" cx="344" cy="-306" rx="72.1547" ry="18"></ellipse>
<text text-anchor="middle" x="344" y="-301.8" font-family="Times,serif" font-size="14.00">Read sequences</text>
</g>
<!-- Transform XYn patterns to regex&#45;&gt;Read sequences -->
<g id="edge6" class="edge"><title>Transform XYn patterns to regex-&gt;Read sequences</title>
<path fill="none" stroke="black" d="M249.701,-360.233C267.065,-350.431 289.118,-337.982 307.531,-327.588"></path>
<polygon fill="black" stroke="black" points="309.253,-330.634 316.241,-322.671 305.812,-324.539 309.253,-330.634"></polygon>
</g>
<!-- Read XYn patterns from file -->
<g id="node4" class="node"><title>Read XYn patterns from file</title>
<ellipse fill="none" stroke="black" cx="340" cy="-450" rx="121.271" ry="18"></ellipse>
<text text-anchor="middle" x="340" y="-445.8" font-family="Times,serif" font-size="14.00">Read XYn patterns from file</text>
</g>
<!-- Read XYn patterns from file&#45;&gt;Transform XYn patterns to regex -->
<g id="edge4" class="edge"><title>Read XYn patterns from file-&gt;Transform XYn patterns to regex</title>
<path fill="none" stroke="black" d="M311.562,-432.411C295.39,-422.978 274.943,-411.05 257.475,-400.86"></path>
<polygon fill="black" stroke="black" points="259.051,-397.728 248.65,-395.713 255.524,-403.775 259.051,-397.728"></polygon>
</g>
<!-- Generate transactions from regex and sequences -->
<g id="node11" class="node"><title>Generate transactions from regex and sequences</title>
<ellipse fill="none" stroke="black" cx="344" cy="-234" rx="197.067" ry="18"></ellipse>
<text text-anchor="middle" x="344" y="-229.8" font-family="Times,serif" font-size="14.00">Generate transactions from regex and sequences</text>
</g>
<!-- Read sequences&#45;&gt;Generate transactions from regex and sequences -->
<g id="edge10" class="edge"><title>Read sequences-&gt;Generate transactions from regex and sequences</title>
<path fill="none" stroke="black" d="M344,-287.697C344,-279.983 344,-270.712 344,-262.112"></path>
<polygon fill="black" stroke="black" points="347.5,-262.104 344,-252.104 340.5,-262.104 347.5,-262.104"></polygon>
</g>
<!-- Read regex from file -->
<g id="node8" class="node"><title>Read regex from file</title>
<ellipse fill="none" stroke="black" cx="469" cy="-378" rx="91.3086" ry="18"></ellipse>
<text text-anchor="middle" x="469" y="-373.8" font-family="Times,serif" font-size="14.00">Read regex from file</text>
</g>
<!-- Read regex from file&#45;&gt;Read sequences -->
<g id="edge8" class="edge"><title>Read regex from file-&gt;Read sequences</title>
<path fill="none" stroke="black" d="M440.008,-360.765C422.406,-350.907 399.77,-338.231 380.898,-327.663"></path>
<polygon fill="black" stroke="black" points="382.41,-324.498 371.975,-322.666 378.99,-330.606 382.41,-324.498"></polygon>
</g>
<!-- Save transactions to intermediary file -->
<g id="node13" class="node"><title>Save transactions to intermediary file</title>
<ellipse fill="none" stroke="black" cx="344" cy="-162" rx="154.959" ry="18"></ellipse>
<text text-anchor="middle" x="344" y="-157.8" font-family="Times,serif" font-size="14.00">Save transactions to intermediary file</text>
</g>
<!-- Generate transactions from regex and sequences&#45;&gt;Save transactions to intermediary file -->
<g id="edge12" class="edge"><title>Generate transactions from regex and sequences-&gt;Save transactions to intermediary file</title>
<path fill="none" stroke="black" d="M344,-215.697C344,-207.983 344,-198.712 344,-190.112"></path>
<polygon fill="black" stroke="black" points="347.5,-190.104 344,-180.104 340.5,-190.104 347.5,-190.104"></polygon>
</g>
<!-- AR algorithm (apriori/eclat) -->
<g id="node15" class="node"><title>AR algorithm (apriori/eclat)</title>
<ellipse fill="none" stroke="black" cx="514" cy="-90" rx="119.362" ry="18"></ellipse>
<text text-anchor="middle" x="514" y="-85.8" font-family="Times,serif" font-size="14.00">AR algorithm (apriori/eclat)</text>
</g>
<!-- Save transactions to intermediary file&#45;&gt;AR algorithm (apriori/eclat) -->
<g id="edge14" class="edge"><title>Save transactions to intermediary file-&gt;AR algorithm (apriori/eclat)</title>
<path fill="none" stroke="black" d="M383.857,-144.588C408.331,-134.511 439.838,-121.537 465.721,-110.88"></path>
<polygon fill="black" stroke="black" points="467.064,-114.112 474.979,-107.068 464.399,-107.639 467.064,-114.112"></polygon>
</g>
<!-- Print/Save/Explore -->
<g id="node19" class="node"><title>Print/Save/Explore</title>
<ellipse fill="none" stroke="black" cx="514" cy="-18" rx="84.2844" ry="18"></ellipse>
<text text-anchor="middle" x="514" y="-13.8" font-family="Times,serif" font-size="14.00">Print/Save/Explore</text>
</g>
<!-- AR algorithm (apriori/eclat)&#45;&gt;Print/Save/Explore -->
<g id="edge18" class="edge"><title>AR algorithm (apriori/eclat)-&gt;Print/Save/Explore</title>
<path fill="none" stroke="black" d="M514,-71.6966C514,-63.9827 514,-54.7125 514,-46.1124"></path>
<polygon fill="black" stroke="black" points="517.5,-46.1043 514,-36.1043 510.5,-46.1044 517.5,-46.1043"></polygon>
</g>
<!-- Read transactions from intermediary file -->
<g id="node16" class="node"><title>Read transactions from intermediary file</title>
<ellipse fill="none" stroke="black" cx="685" cy="-162" rx="167.453" ry="18"></ellipse>
<text text-anchor="middle" x="685" y="-157.8" font-family="Times,serif" font-size="14.00">Read transactions from intermediary file</text>
</g>
<!-- Read transactions from intermediary file&#45;&gt;AR algorithm (apriori/eclat) -->
<g id="edge16" class="edge"><title>Read transactions from intermediary file-&gt;AR algorithm (apriori/eclat)</title>
<path fill="none" stroke="black" d="M644.475,-144.411C619.934,-134.365 588.482,-121.49 562.607,-110.898"></path>
<polygon fill="black" stroke="black" points="563.93,-107.658 553.35,-107.108 561.279,-114.136 563.93,-107.658"></polygon>
</g>
</g>
</svg>
